<?xml version="1.0" encoding="UTF-8"?>
<svg width="256" height="256" version="1.1" viewBox="0 0 256 256" xml:space="preserve" xmlns="http://www.w3.org/2000/svg">
  
  <path d="m96.83455 15.346015c-16.212769 0-30.540041 9.992968-36.179566 25.043227-8.988642 2.491079-16.958037 7.50387-23.151136 14.582684-7.604708 8.691096-11.785049 19.846007-11.785049 31.408763 0 1.162504.03183 2.330958.121647 3.500381-11.936417 9.0094-19.0020436 23.12385-19.0020436 38.12567 0 12.59379 4.7823516 24.34061 13.5149666 33.2739-.484377 2.73326-.716289 5.53628-.716289 8.33874 0 23.86585 18.107456 44.28438 41.57203 47.34288 5.99243 14.24758 20.063134 23.69175 35.625452 23.69175 12.400048 0 23.920948-5.9451 31.151998-15.81254 7.23104 9.86052 18.76548 15.81254 31.16552 15.81254 2.58795 0 5.17753-.25118 7.71704-.77036 13.05048-2.671 23.8125-11.90052 28.46253-24.27287 7.12033-1.97902 13.74417-5.62707 19.24531-10.60922 1.37009-1.23862 2.68104-2.57565 3.90582-3.97342 7.60473-8.69109 11.78503-19.84607 11.78503-31.40876 0-1.16258-.0415-2.33131-.12179-3.48688 11.93641-9.00941 19.01558-23.12393 19.01558-38.12576 0-12.59378-4.79588-24.3471-13.5285-33.287302.48438-2.740189.72982-5.543205.72982-8.338749 0-23.872834-18.11405-44.284447-41.58554-47.34294-5.99934-14.254503-20.07005-23.691733-35.62545-23.691733-1.79912 0-3.61413.115765-5.39247.364873-10.31723 1.446209-19.64223 7.109414-25.77305 15.447607-7.23104-9.860519-18.75196-15.812508-31.152002-15.812508zm-.148629 18.353325c.637918-.0052 1.284789.01245 1.932635.06781 10.372584.899556 18.501984 9.980423 18.501984 20.664416v147.110354c0 10.26878-7.45842 19.10346-17.339689 20.54276-10.559411 1.50848-20.572598-5.40695-22.759211-15.74493-.249108-1.34241-.66754-3.77952-.729803-4.55452-.795761-10.05428 7.722986-17.86617 16.407163-19.62375 4.241755-.85805 7.3116-4.60566 7.3116-9.05501 0-2.75402-1.227053-5.35166-3.365225-7.09535-1.633046-1.33549-3.634665-2.04081-5.689805-2.04081-.588171 0-1.195801.0554-1.783972.17576-16.427278 3.32143-28.803095 17.07696-30.706002 33.47657-12.054052-3.82651-20.475177-15.08397-20.475177-28.00298 0-2.9893.445695-5.93479 1.324472-8.74418l1.851549-5.98716-4.892415-3.9193c-7.037298-5.62569-11.082277-13.9937-11.082277-22.97549 0-10.60784 5.756295-20.43425 15.028643-25.63783l5.865493-3.297707-1.37852-6.595266c-.422101-2.006702-.635226-4.047381-.635226-6.081761 0-10.483288 5.797375-20.251638 14.758339-25.462143 1.397771 7.680756 5.092657 14.796383 10.676824 20.380551 5.36966 5.369658 12.099031 8.999229 19.461551 10.514634 2.733269.560493 5.531405-.121094 7.676499-1.878619 2.124344-1.729916 3.338195-4.297871 3.338195-7.176382 0-4.29711-3.069842-8.054625-7.311595-8.933422-3.854251-.795762-7.373979-2.697838-10.190283-5.514142-4.227913-4.241752-6.468264-9.46852-6.122282-14.312352.07611-1.017191.588033-4.000396.581114-4.000396 1.887767-9.510211 10.176741-16.221225 19.745361-16.299043zm62.412119 0c9.38307 0 17.87413 6.578108 19.867 15.961192.26986 1.439289.6748 3.800625.71629 4.541028-.0277 9.466098-6.91436 17.720494-16.36662 19.637241-4.24176.858038-7.32511 4.619498-7.32511 9.055001 0 2.754026 1.22705 5.338105 3.36522 7.08186 2.10358 1.722995 4.83738 2.40479 7.47377 1.865056 16.42729-3.321438 28.8031-17.070392 30.70601-33.463073 12.05406 3.826574 20.47517 15.084034 20.47517 28.003044 0 2.989294-.44569 5.934788-1.32446 8.744175l-1.85155 5.973596 4.89242 3.91937c7.03731 5.61877 11.06877 13.9937 11.06877 22.97542 0 10.60784-5.75633 20.4274-15.02866 25.6379l-5.87901 3.31113 1.39204 6.58184c.41518 1.9928.63522 4.04704.63522 6.09526 0 10.49014-5.79046 20.25164-14.75833 25.46214-2.78863-15.28553-14.63833-27.66404-30.13838-30.88169-2.71943-.56741-5.52449.11414-7.6765 1.86506-2.13125 1.72992-3.35172 4.30479-3.35172 7.17645 0 4.30403 3.06358 8.04798 7.28458 8.91993 9.39689 1.93051 16.23579 10.17973 16.33959 19.85348l-.58112 3.9869c-2.01362 10.15114-11.25008 17.13827-21.67801 16.21796-10.37257-.90647-18.48848-9.98044-18.48848-20.66439v-147.137421c0-9.971254 6.91275-18.526766 16.43421-20.353558 1.27322-.242187 2.54525-.364873 3.79771-.364873zm-90.915182 62.074238c-2.089849-.05541-4.146608.606159-5.838465 1.919104-2.241971 1.736826-3.540923 4.366438-3.540923 7.203498v.29755c0 4.05492 2.811653 7.61854 6.825057 8.64958 6.456046 1.66762 10.960635 7.49308 10.960635 14.16365 0 6.67055-4.504589 12.48258-10.960635 14.15022-4.013404 1.03102-6.825057 4.71208-6.825057 8.94684 0 2.83706 1.292033 5.46668 3.540924 7.20351 1.62612 1.25938 3.581894 1.9056 5.581675 1.9056.775003 0 1.56309-.0899 2.338092-.29754 14.531292-3.77813 24.691843-16.89318 24.691843-31.90885 0-15.01566-10.160551-28.144197-24.691843-31.922336-.693696-.181982-1.384694-.292003-2.081302-.310683zm119.634482.01379c-.69575.02081-1.38934.117596-2.0813.297544-14.53129 3.778139-24.67833 16.893188-24.67833 31.908848 0 15.01567 10.15396 28.1307 24.67833 31.90884.775.20068 1.56309.3107 2.33809.3107 2.0067 0 3.94863-.65944 5.58168-1.91917 2.24196-1.73683 3.5274-4.35945 3.5274-7.20344 0-4.22791-2.79813-7.90897-6.81154-8.94691-6.45604-1.66764-10.96065-7.47961-10.96065-14.15016 0-6.65672 4.50461-12.48259 10.96065-14.15023 4.01341-1.03102 6.81154-4.712 6.81154-8.94684 0-2.83706-1.27852-5.466677-3.5274-7.203502-1.69705-1.313005-3.75122-1.961731-5.83847-1.905609z" fill="#fff"/>
  
  
</svg>
